# xmcd
#
# Track frame offsets:
#	150
#	21621
#	38649
#	56730
#	70816
#	86428
#	102448
#	117666
#	137230
#	156262
#	177733
#	194761
#	212828
#	226914
#	242526
#	258546
#	273764
#	293328
#
# Disc length: 4164 seconds
#
# Revision: 1
# Processed by: cddbd v1.5.2PL0 Copyright (c) Steve Scherf et al.
# Submitted via: audiograbber 1.83.01
#
DISCID=11104212
DTITLE=Various Artist - PHM 20816-4
DYEAR=2008
DGENRE=Karaoke
TTITLE0=Jordin Sparks ft Chris Brown - No Air
TTITLE1=Cascada - What Hurts The Most
TTITLE2=Janet Jackson - Feedback
TTITLE3=Plain White T's - Our time Now
TTITLE4=Paramore - CrushCrushCrush
TTITLE5=Jennifer Lopez - Do It Well
TTITLE6=Flyleaf - All Around Me
TTITLE7=Leona Lewis - Bleeding Love
TTITLE8=Babyface - Fire And Rain
TTITLE9=Jordin Sparks ft Chris Brown - No Air (vocal)
TTITLE10=Cascada - What Hurts The Most (vocal)
TTITLE11=Janet jackson - Feedback (vocal)
TTITLE12=Plain White T's - Our Time Now (vocal)
TTITLE13=Paramore - CrushCrushCrush (vocal)
TTITLE14=Jennifer Lopez - Do It Well (vocal)
TTITLE15=Flyleaf - All Around me (vocal)
TTITLE16=Leona Lewis - Bleeding Love (vocal)
TTITLE17=Babyface - Fire And Rain (vocal)
EXTD=
EXTT0=
EXTT1=
EXTT2=
EXTT3=
EXTT4=
EXTT5=
EXTT6=
EXTT7=
EXTT8=
EXTT9=
EXTT10=
EXTT11=
EXTT12=
EXTT13=
EXTT14=
EXTT15=
EXTT16=
EXTT17=
PLAYORDER=
